<svg viewBox="0 0 16 16" xmlns="http://www.w3.org/2000/svg">
    <symbol viewBox="0 0 16 16" id="zoom">
        <title>zoom</title>
        <path d="M7,4H6v2H4v1h2v2h1V7h2V6H7V4z M11,9.6c0.6-0.9,1-2,1-3.1C12,3.5,9.5,1,6.5,1S1,3.5,1,6.5S3.5,12,6.5,12c1.2,0,2.2-0.4,3.1-1l3.7,3.7l1.4-1.4L11,9.6z M6.5,10.5c-2.2,0-4-1.8-4-4s1.8-4,4-4s4,1.8,4,4S8.7,10.5,6.5,10.5z"/>
    </symbol>
    <symbol viewBox="0 0 16 16" id="tags">
        <title>tags</title>
        <path d="M3 2v4.586l7 7L14.586 9l-7-7H3zM2 2a1 1 0 0 1 1-1h4.586a1 1 0 0 1 .707.293l7 7a1 1 0 0 1 0 1.414l-4.586 4.586a1 1 0 0 1-1.414 0l-7-7A1 1 0 0 1 2 6.586V2z"/>
        <path d="M5.5 5a.5.5 0 1 1 0-1 .5.5 0 0 1 0 1zm0 1a1.5 1.5 0 1 0 0-3 1.5 1.5 0 0 0 0 3zM1 7.086a1 1 0 0 0 .293.707L8.75 15.25l-.043.043a1 1 0 0 1-1.414 0l-7-7A1 1 0 0 1 0 7.586V3a1 1 0 0 1 1-1v5.086z"/>
    </symbol>
    <symbol viewBox="0 0 16 16" id="tag">
        <title>tag</title>
        <path d="M11.3,4.3C11.1,4.1,10.9,4,10.6,4H3C2.5,4,2,4.5,2,5v6c0,0.6,0.5,1,1,1h7.6c0.3,0,0.5-0.1,0.7-0.3L15,8L11.3,4.3z M10,9C9.5,9,9,8.5,9,8s0.5-1,1-1s1,0.5,1,1S10.5,9,10,9z"/>
    </symbol>
    <symbol viewBox="0 0 16 16" id="bookmark">
        <title>bookmark</title>
        <path d="M2 2v13.5a.5.5 0 0 0 .74.439L8 13.069l5.26 2.87A.5.5 0 0 0 14 15.5V2a2 2 0 0 0-2-2H4a2 2 0 0 0-2 2z"/>
    </symbol>
    <symbol viewBox="0 0 91.862 91.862" id="book">
        <title>book</title>
        <path d="M21.772,91.862H13.44V0h8.332V91.862z M70.838,0v13.417l-5.755-4.026l-5.74,4.026V0H26.546v91.862 h51.875V0H70.838z"/>
    </symbol>
    <symbol viewBox="0 0 490 490" id="folder">
        <title>folder</title>
        <polygon points="56.8,193.3 0,426.2 433.2,426.2 490,193.3"/>
        <polygon points="433.2,169.6 433.2,130.3 174.2,130.3 131.5,63.8 0,63.8 0,326.3 38.2,169.6"/>
    </symbol>
    <symbol viewBox="0 0 32 32" id="horn">
        <title>horn</title>
        <path d="M20.4,2.9c-0.3-0.2-0.7-0.1-1,0.1L9.7,10H3c-0.6,0-1,0.4-1,1v10c0,0.6,0.4,1,1,1h6.7l9.7,7.1c0.2,0.1,0.4,0.2,0.6,0.2
		c0.2,0,0.3,0,0.5-0.1c0.3-0.2,0.5-0.5,0.5-0.9V3.8C21,3.4,20.8,3,20.4,2.9z"/>
        <path d="M27.1,9.3c-0.4-0.4-1-0.4-1.4,0s-0.4,1,0,1.4C27.2,12.1,28,14,28,16s-0.8,3.9-2.3,5.3c-0.4,0.4-0.4,1,0,1.4
		c0.2,0.2,0.5,0.3,0.7,0.3c0.2,0,0.5-0.1,0.7-0.3C29,20.9,30,18.6,30,16S29,11.1,27.1,9.3z"/>
        <path d="M24.7,12.7c-0.4-0.4-1-0.4-1.4,0.1c-0.4,0.4-0.3,1,0.1,1.4c0.5,0.5,0.8,1.2,0.8,1.9s-0.3,1.4-0.8,1.9
		c-0.4,0.4-0.4,1-0.1,1.4c0.2,0.2,0.5,0.3,0.7,0.3c0.2,0,0.5-0.1,0.7-0.3c1-0.9,1.5-2.1,1.5-3.3S25.6,13.5,24.7,12.7z"/>
    </symbol>
</svg>